<?xml version="1.0" encoding="utf-8"?>
<!-- Generator: Adobe Illustrator 24.1.2, SVG Export Plug-In . SVG Version: 6.00 Build 0)  -->
<svg version="1.1" id="Capa_1" xmlns="http://www.w3.org/2000/svg" xmlns:xlink="http://www.w3.org/1999/xlink" x="0px" y="0px"
	 viewBox="0 0 512 512" style="enable-background:new 0 0 512 512;" xml:space="preserve">
<style type="text/css">
	.st0{fill:#EC1E27;}
	.st1{fill:#F6C017;}
</style>
<g>
	<path class="st0" d="M316.1,271h-15v-15c0-8.3-6.7-15-15-15H226c-8.3,0-15,6.7-15,15v15h-15c-8.3,0-15,6.7-15,15v60.1
		c0,8.3,6.7,15,15,15h15v15c0,8.3,6.7,15,15,15h60.1c8.3,0,15-6.7,15-15v-15h15c8.3,0,15-6.7,15-15V286
		C331.1,277.7,324.4,271,316.1,271z M301.1,331.1h-15c-8.3,0-15,6.7-15,15v15H241v-15c0-8.3-6.7-15-15-15h-15V301h15
		c8.3,0,15-6.7,15-15v-15h30.1v15c0,8.3,6.7,15,15,15h15V331.1z"/>
	<path class="st1" d="M481,78.2V30c0-8.3-6.7-15-15-15H46.4c-8.3,0-15,6.7-15,15v108.1C13.2,143.9,0,160.9,0,181v271
		c0,24.8,20.2,45,45,45h422c24.8,0,45-20.2,45-45V121C512,101.1,499,84.1,481,78.2z M451,45v31H316.1c-5.7,0-10.9,3.2-13.4,8.3
		L276.8,136h-5.8V91c0-8.3-6.7-15-15-15s-15,6.7-15,15v45h-29.9V90.6c0-8.3-6.7-15-15-15h-90.1c-8.3,0-15,6.7-15,15V136H61.4V45H451
		z M181.1,136h-60.1v-30.4h60.1V136z M482,452c0,8.3-6.7,15-15,15H45c-8.3,0-15-6.7-15-15V181c0-8.3,6.7-15,15-15h241.1
		c5.7,0,10.9-3.2,13.4-8.3l25.9-51.7H467c8.3,0,15,6.7,15,15V452z"/>
	<path d="M436,406h-60c-8.3,0-15,6.7-15,15s6.7,15,15,15h60c8.3,0,15-6.7,15-15S444.3,406,436,406z"/>
	<path d="M436,346h-60c-8.3,0-15,6.7-15,15s6.7,15,15,15h60c8.3,0,15-6.7,15-15S444.3,346,436,346z"/>
</g>
</svg>
