<?xml version="1.0" encoding="utf-8"?>
<!-- Generator: Adobe Illustrator 24.1.2, SVG Export Plug-In . SVG Version: 6.00 Build 0)  -->
<svg version="1.1" id="Capa_1" xmlns="http://www.w3.org/2000/svg" xmlns:xlink="http://www.w3.org/1999/xlink" x="0px" y="0px"
	 viewBox="0 0 512 512" style="enable-background:new 0 0 512 512;" xml:space="preserve">
<style type="text/css">
	.st0{fill:#F6C017;}
	.st1{fill:#EC1E27;}
</style>
<g>
	<path class="st0" d="M406,31.4h-75V15c0-8.3-6.7-15-15-15H195.9c-8.3,0-15,6.7-15,15v16.4H106c-24.8,0-45,20.2-45,45V467
		c0,24.8,20.2,45,45,45h300c24.8,0,45-20.2,45-45V76.4C451,51.6,430.8,31.4,406,31.4L406,31.4z M301,30v30.6h-90.1
		c0-13.4,0-17.1,0-30.6H301z M106,61.4h74.9v14.2c0,8.3,6.7,15,15,15H316c8.3,0,15-6.7,15-15V61.4h75c8.3,0,15,6.7,15,15V121H91
		V76.4C91,68.1,97.7,61.4,106,61.4L106,61.4z M406,482H106c-8.3,0-15-6.7-15-15V151h330v316C421,475.3,414.3,482,406,482z"/>
	<path d="M135.9,211h120c8.3,0,15-6.7,15-15s-6.7-15-15-15h-120c-8.3,0-15,6.7-15,15S127.7,211,135.9,211z"/>
	<path d="M256,241H136c-8.3,0-15,6.7-15,15s6.7,15,15,15h120c8.3,0,15-6.7,15-15S264.3,241,256,241z"/>
	<path d="M135.9,331h240c8.3,0,15-6.7,15-15s-6.7-15-15-15h-240c-8.3,0-15,6.7-15,15S127.7,331,135.9,331L135.9,331z"/>
	<path d="M375.9,361h-240c-8.3,0-15,6.7-15,15s6.7,15,15,15h240c8.3,0,15-6.7,15-15S384.2,361,375.9,361z"/>
	<path d="M375.9,421h-240c-8.3,0-15,6.7-15,15s6.7,15,15,15h240c8.3,0,15-6.7,15-15S384.2,421,375.9,421z"/>
	<path class="st1" d="M376,211h-15v-15c0-8.3-6.7-15-15-15s-15,6.7-15,15v15h-15c-8.3,0-15,6.7-15,15s6.7,15,15,15h15v15.2
		c0,8.3,6.7,15,15,15s15-6.7,15-15V241h15c8.3,0,15-6.7,15-15S384.3,211,376,211L376,211z"/>
</g>
</svg>
